# xmcd
#
# Track frame offsets:
# 150
# 19135
# 35887
# 53715
# 67260
# 85260
# 103272
# 119092
# 130082
#
# Disc length: 1979 seconds
#
# Revision: 0
# Processed by: cddbd v1.5PL3 Copyright (c) Steve Scherf et al.
# Submitted via: Audion 3.0.2 (http://www.panic.com/audion/)
#
DISCID=8607b909
DTITLE=Various Artist - Nashville Skyline
DYEAR=1900
DGENRE=
TTITLE0=Ashes By Now by Lee Ann Womack
TTITLE1=I Would Loved You Anyway by Trisha Yearwood
TTITLE2=There Is No Arizona by Jamie O'Neil
TTITLE3=If I Fell by Reba McEntire
TTITLE4=No Fear by Terri Clark
TTITLE5=Think It Over by Allison Moorer
TTITLE6=Flowers On The Wall by Eric Heatherly
TTITLE7=Right Through The Middle Of Us by Neal Coty
TTITLE8=If You Can Do Anything by George Strait
EXTD=
EXTT0=
EXTT1=
EXTT2=
EXTT3=
EXTT4=
EXTT5=
EXTT6=
EXTT7=
EXTT8=
PLAYORDER=
